HIERARCHY
ROOT mixamorig:Hips
{
	OFFSET 0.000000 102.625267 -0.521241
	CHANNELS 6 Xposition Yposition Zposition Xrotation Yrotation Zrotation
	JOINT mixamorig:Spine
	{
		OFFSET 0.000000 5.645721 -0.031929
		CHANNELS 3 Xrotation Yrotation Zrotation
		JOINT mixamorig:Spine1
		{
			OFFSET 0.000000 6.586685 -0.037251
			CHANNELS 3 Xrotation Yrotation Zrotation
			JOINT mixamorig:Spine2
			{
				OFFSET 0.000000 7.527618 -0.042572
				CHANNELS 3 Xrotation Yrotation Zrotation
				JOINT mixamorig:Neck
				{
					OFFSET 0.000000 8.468590 -0.047894
					CHANNELS 3 Xrotation Yrotation Zrotation
					JOINT mixamorig:Head
					{
						OFFSET 0.000000 5.998901 -1.158958
						CHANNELS 3 Xrotation Yrotation Zrotation
						JOINT mixamorig:HeadTop_End
						{
							OFFSET 0.000000 21.748810 -4.201760
							CHANNELS 3 Xrotation Yrotation Zrotation
							End Site
							{
								OFFSET 0.000000 22.150970 0.000000
							}
						}
					}
				}
				JOINT mixamorig:LeftShoulder
				{
					OFFSET 3.414614 7.343132 -0.058928
					CHANNELS 3 Xrotation Yrotation Zrotation
					JOINT mixamorig:LeftArm
					{
						OFFSET 6.829548 -2.246910 -0.022071
						CHANNELS 3 Xrotation Yrotation Zrotation
						JOINT mixamorig:LeftForeArm
						{
							OFFSET 24.198503 -0.424179 0.257802
							CHANNELS 3 Xrotation Yrotation Zrotation
							JOINT mixamorig:LeftHand
							{
								OFFSET 21.584717 -0.002335 0.669575
								CHANNELS 3 Xrotation Yrotation Zrotation
								JOINT mixamorig:LeftHandThumb1
								{
									OFFSET 2.193897 -1.259628 1.956942
									CHANNELS 3 Xrotation Yrotation Zrotation
									JOINT mixamorig:LeftHandThumb2
									{
										OFFSET 1.755203 -1.007660 1.565605
										CHANNELS 3 Xrotation Yrotation Zrotation
										JOINT mixamorig:LeftHandThumb3
										{
											OFFSET 2.535126 -0.998764 1.490660
											CHANNELS 3 Xrotation Yrotation Zrotation
											JOINT mixamorig:LeftHandThumb4
											{
												OFFSET 2.398251 -0.721657 1.023775
												CHANNELS 3 Xrotation Yrotation Zrotation
												End Site
												{
													OFFSET 2.205696 -0.773872 1.362551
												}
											}
										}
									}
								}
								JOINT mixamorig:LeftHandIndex1
								{
									OFFSET 7.166248 -0.069405 2.369028
									CHANNELS 3 Xrotation Yrotation Zrotation
									JOINT mixamorig:LeftHandIndex2
									{
										OFFSET 2.989986 -0.015724 0.245918
										CHANNELS 3 Xrotation Yrotation Zrotation
										JOINT mixamorig:LeftHandIndex3
										{
											OFFSET 2.739197 -0.058952 0.219132
											CHANNELS 3 Xrotation Yrotation Zrotation
											JOINT mixamorig:LeftHandIndex4
											{
												OFFSET 2.326500 -0.032570 0.188458
												CHANNELS 3 Xrotation Yrotation Zrotation
												End Site
												{
													OFFSET 2.326485 -0.032578 0.188548
												}
											}
										}
									}
								}
								JOINT mixamorig:LeftHandMiddle1
								{
									OFFSET 7.394897 0.286369 0.654762
									CHANNELS 3 Xrotation Yrotation Zrotation
									JOINT mixamorig:LeftHandMiddle2
									{
										OFFSET 3.376106 0.152466 -0.003692
										CHANNELS 3 Xrotation Yrotation Zrotation
										JOINT mixamorig:LeftHandMiddle3
										{
											OFFSET 3.185104 -0.185410 -0.047914
											CHANNELS 3 Xrotation Yrotation Zrotation
											JOINT mixamorig:LeftHandMiddle4
											{
												OFFSET 2.742905 0.223846 0.010354
												CHANNELS 3 Xrotation Yrotation Zrotation
												End Site
												{
													OFFSET 2.742889 0.224251 0.006757
												}
											}
										}
									}
								}
								JOINT mixamorig:LeftHandRing1
								{
									OFFSET 7.508747 0.282753 -1.072900
									CHANNELS 3 Xrotation Yrotation Zrotation
									JOINT mixamorig:LeftHandRing2
									{
										OFFSET 2.821857 0.317802 -0.177266
										CHANNELS 3 Xrotation Yrotation Zrotation
										JOINT mixamorig:LeftHandRing3
										{
											OFFSET 2.672325 0.088310 -0.196165
											CHANNELS 3 Xrotation Yrotation Zrotation
											JOINT mixamorig:LeftHandRing4
											{
												OFFSET 2.272652 -0.053627 -0.183955
												CHANNELS 3 Xrotation Yrotation Zrotation
												End Site
												{
													OFFSET 2.272919 -0.054016 -0.180438
												}
											}
										}
									}
								}
								JOINT mixamorig:LeftHandPinky1
								{
									OFFSET 7.285820 0.522377 -2.660948
									CHANNELS 3 Xrotation Yrotation Zrotation
									JOINT mixamorig:LeftHandPinky2
									{
										OFFSET 2.466278 0.082008 -0.249570
										CHANNELS 3 Xrotation Yrotation Zrotation
										JOINT mixamorig:LeftHandPinky3
										{
											OFFSET 1.940475 0.021858 -0.202004
											CHANNELS 3 Xrotation Yrotation Zrotation
											JOINT mixamorig:LeftHandPinky4
											{
												OFFSET 1.645287 0.153595 -0.153405
												CHANNELS 3 Xrotation Yrotation Zrotation
												End Site
												{
													OFFSET 1.645088 0.153801 -0.155289
												}
											}
										}
									}
								}
							}
						}
					}
				}
				JOINT mixamorig:RightShoulder
				{
					OFFSET -3.414604 7.343132 -0.036860
					CHANNELS 3 Xrotation Yrotation Zrotation
					JOINT mixamorig:RightArm
					{
						OFFSET -6.829551 -2.246986 0.022068
						CHANNELS 3 Xrotation Yrotation Zrotation
						JOINT mixamorig:RightForeArm
						{
							OFFSET -24.198494 -0.424141 0.158696
							CHANNELS 3 Xrotation Yrotation Zrotation
							JOINT mixamorig:RightHand
							{
								OFFSET -21.584698 -0.002243 0.686977
								CHANNELS 3 Xrotation Yrotation Zrotation
								JOINT mixamorig:RightHandThumb1
								{
									OFFSET -2.242882 -1.296806 1.978855
									CHANNELS 3 Xrotation Yrotation Zrotation
									JOINT mixamorig:RightHandThumb2
									{
										OFFSET -1.794239 -1.037361 1.583064
										CHANNELS 3 Xrotation Yrotation Zrotation
										JOINT mixamorig:RightHandThumb3
										{
											OFFSET -2.504150 -0.962166 1.471556
											CHANNELS 3 Xrotation Yrotation Zrotation
											JOINT mixamorig:RightHandThumb4
											{
												OFFSET -2.346046 -0.743172 0.992235
												CHANNELS 3 Xrotation Yrotation Zrotation
												End Site
												{
													OFFSET -2.157112 -0.792709 1.326359
												}
											}
										}
									}
								}
								JOINT mixamorig:RightHandIndex1
								{
									OFFSET -7.174488 -0.001839 2.366265
									CHANNELS 3 Xrotation Yrotation Zrotation
									JOINT mixamorig:RightHandIndex2
									{
										OFFSET -2.935219 -0.016853 0.287245
										CHANNELS 3 Xrotation Yrotation Zrotation
										JOINT mixamorig:RightHandIndex3
										{
											OFFSET -2.786827 -0.129890 0.255971
											CHANNELS 3 Xrotation Yrotation Zrotation
											JOINT mixamorig:RightHandIndex4
											{
												OFFSET -2.343559 0.168816 0.256164
												CHANNELS 3 Xrotation Yrotation Zrotation
												End Site
												{
													OFFSET -2.344208 0.169510 0.249690
												}
											}
										}
									}
								}
								JOINT mixamorig:RightHandMiddle1
								{
									OFFSET -7.274693 0.327965 0.656181
									CHANNELS 3 Xrotation Yrotation Zrotation
									JOINT mixamorig:RightHandMiddle2
									{
										OFFSET -3.309677 0.091591 0.032863
										CHANNELS 3 Xrotation Yrotation Zrotation
										JOINT mixamorig:RightHandMiddle3
										{
											OFFSET -3.186844 -0.122513 0.000971
											CHANNELS 3 Xrotation Yrotation Zrotation
											JOINT mixamorig:RightHandMiddle4
											{
												OFFSET -2.671951 -0.322540 -0.031001
												CHANNELS 3 Xrotation Yrotation Zrotation
												End Site
												{
													OFFSET -2.671928 -0.323486 -0.021820
												}
											}
										}
									}
								}
								JOINT mixamorig:RightHandRing1
								{
									OFFSET -7.453640 0.430428 -1.170334
									CHANNELS 3 Xrotation Yrotation Zrotation
									JOINT mixamorig:RightHandRing2
									{
										OFFSET -2.808174 0.165817 -0.117934
										CHANNELS 3 Xrotation Yrotation Zrotation
										JOINT mixamorig:RightHandRing3
										{
											OFFSET -2.730080 0.127754 -0.119542
											CHANNELS 3 Xrotation Yrotation Zrotation
											JOINT mixamorig:RightHandRing4
											{
												OFFSET -2.349426 0.078133 -0.107466
												CHANNELS 3 Xrotation Yrotation Zrotation
												End Site
												{
													OFFSET -2.349503 0.077988 -0.106043
												}
											}
										}
									}
								}
								JOINT mixamorig:RightHandPinky1
								{
									OFFSET -7.364456 0.463486 -2.604800
									CHANNELS 3 Xrotation Yrotation Zrotation
									JOINT mixamorig:RightHandPinky2
									{
										OFFSET -2.430134 0.174614 -0.251330
										CHANNELS 3 Xrotation Yrotation Zrotation
										JOINT mixamorig:RightHandPinky3
										{
											OFFSET -1.953583 0.007492 -0.220999
											CHANNELS 3 Xrotation Yrotation Zrotation
											JOINT mixamorig:RightHandPinky4
											{
												OFFSET -1.582039 0.276558 -0.139972
												CHANNELS 3 Xrotation Yrotation Zrotation
												End Site
												{
													OFFSET -1.581284 0.277252 -0.147002
												}
											}
										}
									}
								}
							}
						}
					}
				}
			}
		}
	}
	JOINT mixamorig:LeftUpLeg
	{
		OFFSET 6.620181 -8.816864 -0.447179
		CHANNELS 3 Xrotation Yrotation Zrotation
		JOINT mixamorig:LeftLeg
		{
			OFFSET 2.748989 -36.076775 0.650871
			CHANNELS 3 Xrotation Yrotation Zrotation
			JOINT mixamorig:LeftFoot
			{
				OFFSET 1.089303 -46.239017 1.019056
				CHANNELS 3 Xrotation Yrotation Zrotation
				JOINT mixamorig:LeftToeBase
				{
					OFFSET -0.371088 -10.380511 12.650617
					CHANNELS 3 Xrotation Yrotation Zrotation
					JOINT mixamorig:LeftToe_End
					{
						OFFSET -0.094684 -0.116785 6.663326
						CHANNELS 3 Xrotation Yrotation Zrotation
						End Site
						{
							OFFSET -0.094684 -0.116785 6.663326
						}
					}
				}
			}
		}
	}
	JOINT mixamorig:RightUpLeg
	{
		OFFSET -6.620174 -8.816818 -0.447182
		CHANNELS 3 Xrotation Yrotation Zrotation
		JOINT mixamorig:RightLeg
		{
			OFFSET -2.748991 -36.076790 0.753614
			CHANNELS 3 Xrotation Yrotation Zrotation
			JOINT mixamorig:RightFoot
			{
				OFFSET -1.089311 -46.239029 0.372114
				CHANNELS 3 Xrotation Yrotation Zrotation
				JOINT mixamorig:RightToeBase
				{
					OFFSET 0.371103 -10.380659 13.284531
					CHANNELS 3 Xrotation Yrotation Zrotation
					JOINT mixamorig:RightToe_End
					{
						OFFSET 0.094689 -0.116865 6.675873
						CHANNELS 3 Xrotation Yrotation Zrotation
						End Site
						{
							OFFSET 0.094687 -0.116865 6.675871
						}
					}
				}
			}
		}
	}
}
MOTION
Frames: 4
Frame Time: 0.016667
6.101978 97.629013 -5.034323 -6.208948 7.837984 2.889134 20.244780 -0.078417 2.524869 6.001399 -2.335524 -2.400700 5.919316 -2.422129 -2.470545 5.527397 2.372235 -0.205213 20.235916 11.515212 -2.625266 0.000002 0.000001 -0.000002 1.146378 4.861504 -23.958710 -37.418044 -26.879252 -59.582110 -4.742838 -78.255724 -4.843506 21.748938 -31.802860 34.222618 5.503115 27.314111 14.704434 -1.834491 -8.963869 -7.712627 -8.733439 -16.206091 6.369551 -0.000003 -0.000004 -0.000001 3.585655 -2.329454 17.000720 2.785915 4.358350 -22.602949 3.175111 4.657253 -25.102378 0.000002 0.000000 0.000000 0.224673 -3.341586 2.892202 0.441650 3.805814 -16.432749 2.912404 7.965812 -44.756399 0.000004 -0.000003 0.000000 0.306884 -0.753391 -15.105938 -0.878884 4.067419 -17.973547 -0.619629 6.710459 -30.855465 -0.000001 0.000000 -0.000001 -14.380883 3.967877 -4.028609 -1.374853 7.922609 -34.767381 -1.349383 8.835353 -40.361729 0.000004 0.000001 0.000002 0.523747 -0.660858 12.863176 -13.768472 2.303750 46.257873 4.341756 102.813144 -4.461303 3.764610 8.197024 -4.089351 3.961987 -22.134929 -16.673503 3.597891 -0.998197 2.826659 -1.601092 -18.590119 -21.510486 0.000001 0.000001 -0.000006 11.270723 6.145653 9.117778 5.483886 -4.966988 37.207708 8.088990 -5.563082 51.597984 -0.000001 -0.000002 0.000001 -0.225821 2.072215 18.653489 3.090596 -6.857978 44.487956 4.733163 -7.987864 55.842595 -0.000002 0.000001 0.000002 1.239221 -2.016126 31.331915 1.086746 -8.289300 49.142241 1.358265 -8.671555 51.797679 -0.000002 0.000000 0.000001 -12.810053 -7.982751 34.510863 -1.297568 -10.654432 55.509644 -0.746995 -11.975430 63.930079 0.000003 -0.000000 0.000002 -14.908949 2.154382 4.054338 31.230712 -7.187377 9.265990 -11.595342 -2.223473 -11.621380 -1.141723 0.000001 0.000007 0.000000 0.000000 -0.000000 -8.716710 -4.629912 -7.807442 36.882420 -10.440190 -5.561468 -21.269370 -0.306824 3.319197 -0.190321 0.000002 -0.000002 -0.000000 -0.000001 -0.000000 
5.427993 97.233025 -5.017696 -7.920966 7.622740 2.470685 20.378904 0.116950 2.959039 7.022544 -1.974540 -2.102422 6.941708 -2.087042 -2.176420 5.452468 2.272469 -0.105050 20.543293 11.128385 -2.467797 -0.000001 -0.000001 -0.000001 1.053707 5.130872 -23.420908 -35.290730 -27.150181 -60.232973 -3.710212 -75.129178 -3.839233 21.805251 -33.028305 37.856617 5.510332 27.178520 14.643982 -1.654887 -9.055328 -7.583602 -8.733015 -16.203814 6.370659 -0.000000 -0.000001 -0.000003 3.583861 -2.083203 15.756391 2.986753 4.559235 -23.857482 3.383995 4.849538 -26.358663 -0.000003 -0.000002 -0.000000 0.202371 -3.083074 1.646843 0.514203 4.054161 -17.681791 3.086716 8.159125 -46.025144 0.000003 0.000001 0.000002 0.333020 -0.539495 -16.350889 -0.893858 4.333256 -19.208724 -0.570671 6.969817 -32.094417 0.000001 0.000002 0.000001 -14.280752 4.731456 -5.010347 -1.334401 8.204857 -36.001954 -1.287021 9.116896 -41.599755 0.000000 -0.000001 -0.000003 0.377712 0.682390 14.540571 -15.356285 4.300079 44.819408 5.811033 99.652569 -5.901987 7.360738 10.787319 -6.522877 3.978670 -21.941252 -16.586677 3.532807 -0.811469 2.878904 -1.606354 -18.572415 -21.506133 0.000003 0.000004 -0.000002 11.241276 6.174949 8.928375 5.447857 -4.951560 37.011682 8.050610 -5.556522 51.401261 -0.000000 0.000004 -0.000002 -0.223896 2.096734 18.457939 3.066164 -6.835108 44.291424 4.704265 -7.970526 55.644141 0.000003 0.000003 0.000001 1.251062 -2.036691 31.152821 1.073175 -8.267771 48.995870 1.343449 -8.650430 51.649044 -0.000007 0.000001 -0.000005 -12.809492 -7.983382 34.508544 -1.311870 -10.617258 55.307928 -0.766430 -11.940087 63.726840 0.000000 0.000001 0.000000 -14.069573 2.029178 5.100829 32.885185 -7.126213 9.695961 -12.278589 -2.178358 -12.240347 -1.356796 -0.000001 -0.000000 0.000000 0.000000 -0.000000 -7.893902 -4.928856 -7.319623 38.850317 -10.199045 -4.730878 -22.370565 -0.078695 2.397435 -0.191238 0.000001 -0.000008 0.000000 0.000000 0.000001 
4.745302 96.850266 -4.947139 -9.504084 7.430923 2.165741 20.170887 0.262702 3.216925 8.122775 -1.652089 -1.784861 8.049316 -1.774983 -1.861338 5.322426 2.163472 0.007369 20.967579 10.640052 -2.181922 -0.000003 0.000000 -0.000000 0.972922 5.546250 -22.881047 -33.469498 -27.636286 -61.147747 -3.072172 -72.230466 -3.227622 20.904796 -34.125384 40.296682 5.517983 27.028809 14.577633 -1.462393 -9.151735 -7.448424 -8.732558 -16.200118 6.372226 -0.000003 -0.000000 0.000001 3.587071 -1.810992 14.390111 3.212452 4.774744 -25.236509 3.618292 5.055411 -27.739790 0.000005 0.000001 -0.000000 0.184392 -2.798745 0.279615 0.600198 4.325110 -19.054527 3.283145 8.366932 -47.419879 0.000005 0.000001 0.000003 0.365492 -0.307575 -17.720234 -0.903645 4.625581 -20.565828 -0.510333 7.253576 -33.457217 -0.000006 0.000001 -0.000001 -14.128996 5.536072 -6.113363 -1.282546 8.515633 -37.367367 -1.211092 9.425694 -42.966302 0.000000 0.000001 0.000001 0.220751 1.851499 15.852119 -16.853102 6.347237 43.905979 8.658325 96.525825 -8.721097 10.267583 13.444561 -9.081647 3.995589 -21.740634 -16.497040 3.464877 -0.617110 2.933729 -1.615752 -18.530431 -21.492645 0.000001 0.000002 -0.000003 11.209928 6.206412 8.725298 5.409334 -4.934868 36.801698 8.009549 -5.549374 51.190536 -0.000001 -0.000001 -0.000001 -0.221725 2.122932 18.248416 3.040059 -6.810490 44.080695 4.673387 -7.951860 55.431623 0.000001 -0.000001 0.000000 1.263472 -2.058764 30.960896 1.058655 -8.244633 48.838745 1.327676 -8.627798 51.490122 0.000000 0.000001 0.000002 -12.808772 -7.984553 34.507191 -1.326551 -10.578617 55.098846 -0.786385 -11.903448 63.516736 0.000000 -0.000001 -0.000001 -13.135826 1.922101 6.296821 34.151045 -7.107621 9.636337 -12.960550 -2.267995 -12.681898 -1.440684 0.000000 0.000001 0.000000 -0.000000 -0.000000 -6.976804 -5.187970 -6.894405 40.494901 -9.864376 -4.073415 -23.375414 0.080041 1.873148 -0.192001 0.000004 0.000004 -0.000000 0.000000 0.000000 
4.034242 96.505188 -4.855038 -10.966506 7.327840 2.094281 19.798733 0.324145 3.190812 9.086252 -1.423460 -1.526482 9.022381 -1.541013 -1.600101 5.248103 2.027032 0.179792 21.610683 10.102713 -1.701589 -0.000003 0.000000 -0.000000 0.895898 5.999724 -22.295877 -31.857884 -28.076003 -62.136055 -2.668022 -69.754468 -2.846231 20.323433 -35.290297 42.170531 5.526103 26.868402 14.506495 -1.259580 -9.251489 -7.309410 -8.732322 -16.199320 6.372822 -0.000002 -0.000001 -0.000002 3.597612 -1.516393 12.918708 3.461322 5.000746 -26.723187 3.876214 5.270774 -29.228483 0.000001 -0.000000 -0.000001 0.172658 -2.491980 -1.192450 0.700059 4.614544 -20.534253 3.500541 8.585423 -48.923829 0.000000 -0.000000 -0.000001 0.404868 -0.060403 -19.196774 -0.906435 4.940734 -22.028842 -0.437695 7.557603 -34.926883 -0.000003 -0.000000 -0.000001 -13.922474 6.372415 -7.325035 -1.217845 8.850960 -38.848723 -1.120477 9.757551 -44.446073 0.000003 -0.000000 -0.000001 0.048147 3.030890 17.078265 -18.066272 8.295788 43.220027 16.989660 93.372914 -17.023452 11.495611 16.038973 -11.459726 4.012759 -21.533353 -16.404632 3.394325 -0.415898 2.990870 -1.628657 -18.458123 -21.468429 0.000000 -0.000001 -0.000005 11.176846 6.240004 8.509153 5.368360 -4.916957 36.577985 7.965837 -5.541590 50.966137 0.000000 0.000001 -0.000001 -0.219319 2.150694 18.025178 3.012405 -6.784245 43.856669 4.640539 -7.931803 55.205028 -0.000002 -0.000001 -0.000001 1.276452 -2.082495 30.756584 1.043271 -8.219923 48.671392 1.310951 -8.603687 51.321116 -0.000000 0.000001 -0.000005 -12.807498 -7.987130 34.508182 -1.341570 -10.538665 54.882698 -0.806793 -11.865669 63.300404 0.000001 0.000001 -0.000002 -12.047656 1.972294 7.245131 34.895583 -7.075301 9.606945 -13.534179 -2.536376 -13.168767 -1.422697 -0.000000 0.000004 0.000000 -0.000000 -0.000000 -5.967833 -5.372044 -6.566077 41.785318 -9.573853 -3.666376 -24.249984 0.128131 1.841794 -0.192615 0.000002 0.000003 -0.000000 -0.000000 0.000001 
